<svg width="48" height="47" viewBox="0 0 48 47" fill="none" xmlns="http://www.w3.org/2000/svg">
<g clip-path="url(#clip0_332_3674)">
<path d="M23.8327 4.58894C30.0391 4.58894 30.7742 4.61264 33.2253 4.72441C35.7579 4.83999 38.3683 5.418 40.2137 7.26335C42.0767 9.1263 42.6369 11.7111 42.7529 14.2521C42.8647 16.7032 42.8884 17.4382 42.8884 23.6446C42.8884 29.851 42.8647 30.5862 42.7529 33.0371C42.6379 35.5569 42.0484 38.1911 40.214 40.0256C38.35 41.8896 35.7685 42.4488 33.2251 42.5649C30.7744 42.6768 30.0394 42.7004 23.8326 42.7004C17.6258 42.7004 16.8908 42.6767 14.44 42.5649C11.9398 42.4508 9.27107 41.8453 7.45161 40.026C5.59846 38.1728 5.02762 35.564 4.91231 33.0371C4.80045 30.5861 4.77684 29.851 4.77684 23.6446C4.77684 17.4382 4.80054 16.7031 4.91231 14.252C5.02689 11.7413 5.62388 9.09107 7.45124 7.26362C9.31066 5.40411 11.9039 4.84009 14.44 4.72432C16.8911 4.61264 17.6263 4.58894 23.8327 4.58894ZM23.8327 0.400879C17.5201 0.400879 16.7285 0.427573 14.2492 0.540705C10.6548 0.704774 7.08824 1.70408 4.49011 4.30203C1.88226 6.90988 0.89258 10.4695 0.728693 14.0613C0.615561 16.5405 0.588867 17.332 0.588867 23.6447C0.588867 29.9574 0.615561 30.7489 0.728693 33.2281C0.89249 36.8169 1.89724 40.3944 4.49002 42.9872C7.09469 45.592 10.6616 46.5849 14.2492 46.7486C16.7285 46.8618 17.5201 46.8885 23.8327 46.8885C30.1454 46.8885 30.9369 46.8618 33.4161 46.7487C37.0067 46.5849 40.58 45.5825 43.1753 42.9874C45.7841 40.3786 46.7728 36.8207 46.9367 33.2281C47.0498 30.7489 47.0765 29.9574 47.0765 23.6447C47.0765 17.3321 47.0498 16.5405 46.9367 14.0613C46.7728 10.4688 45.7715 6.89844 43.1754 4.30221C40.5744 1.70117 36.9973 0.704138 33.416 0.540705C30.9369 0.427573 30.1454 0.400879 23.8327 0.400879Z" fill="#FEFEFE"/>
<g filter="url(#filter0_d_332_3674)">
<path d="M23.8335 11.7085C17.2415 11.7085 11.8975 17.0524 11.8975 23.6446C11.8975 30.2366 17.2415 35.5805 23.8335 35.5805C30.4256 35.5805 35.7696 30.2366 35.7696 23.6446C35.7696 17.0525 30.4256 11.7085 23.8335 11.7085ZM23.8335 31.3925C19.5545 31.3925 16.0856 27.9236 16.0856 23.6446C16.0856 19.3655 19.5545 15.8967 23.8335 15.8967C28.1126 15.8967 31.5814 19.3655 31.5814 23.6446C31.5814 27.9236 28.1126 31.3925 23.8335 31.3925Z" fill="#FEFEFE"/>
</g>
<path d="M36.2385 14.0263C37.7789 14.0263 39.0277 12.7775 39.0277 11.237C39.0277 9.69655 37.7789 8.44775 36.2385 8.44775C34.698 8.44775 33.4492 9.69655 33.4492 11.237C33.4492 12.7775 34.698 14.0263 36.2385 14.0263Z" fill="white"/>
</g>
<defs>
<filter id="filter0_d_332_3674" x="7.94107" y="11.7085" width="31.7849" height="31.7849" filterUnits="userSpaceOnUse" color-interpolation-filters="sRGB">
<feFlood flood-opacity="0" result="BackgroundImageFix"/>
<feColorMatrix in="SourceAlpha" type="matrix" values="0 0 0 0 0 0 0 0 0 0 0 0 0 0 0 0 0 0 127 0" result="hardAlpha"/>
<feOffset dy="3.9564"/>
<feGaussianBlur stdDeviation="1.9782"/>
<feComposite in2="hardAlpha" operator="out"/>
<feColorMatrix type="matrix" values="0 0 0 0 0 0 0 0 0 0 0 0 0 0 0 0 0 0 0.25 0"/>
<feBlend mode="normal" in2="BackgroundImageFix" result="effect1_dropShadow_332_3674"/>
<feBlend mode="normal" in="SourceGraphic" in2="effect1_dropShadow_332_3674" result="shape"/>
</filter>
<clipPath id="clip0_332_3674">
<rect width="46.4876" height="46.4876" fill="white" transform="translate(0.588867 0.400879)"/>
</clipPath>
</defs>
</svg>
