<svg width="47" height="47" viewBox="0 0 47 47" fill="none" xmlns="http://www.w3.org/2000/svg">
<g clip-path="url(#clip0_332_3679)">
<path d="M23.5514 1.90601C35.5697 1.90601 45.3116 11.6479 45.3116 23.6662C45.3116 35.6845 35.5697 45.4264 23.5514 45.4264C11.5332 45.4264 1.79127 35.6845 1.79127 23.6662C1.79127 11.6479 11.5332 1.90601 23.5514 1.90601Z" stroke="white" stroke-width="2.9673"/>
<path d="M34.0114 15.2683L30.7018 31.9521C30.7018 31.9521 30.2388 33.1088 28.9667 32.5541L21.3308 26.6995L18.5533 25.3576L13.8791 23.7841C13.8791 23.7841 13.1618 23.5289 13.0928 22.9742C13.0229 22.4185 13.9027 22.118 13.9027 22.118L32.4842 14.8288C32.4842 14.8288 34.0114 14.1579 34.0114 15.2683Z" fill="#FEFEFE"/>
<path d="M24.3135 29.3464L21.0621 32.3109C21.0621 32.3109 20.8087 32.5034 20.53 32.3826C20.1205 32.3236 18.9193 28.0416 18.1738 25.4866L18.7976 25.0898L24.3135 29.3464Z" fill="#737373" fill-opacity="0.38"/>
<path d="M20.53 32.3822C20.0869 32.3405 18.4017 26.2326 18.1738 25.4863L30.2524 17.8149C30.8808 17.4336 31.2167 17.7341 30.6756 18.2389C30.3024 18.5876 21.1874 26.781 21.1874 26.781L20.53 32.3822Z" fill="#707070" fill-opacity="0.4"/>
</g>
<defs>
<clipPath id="clip0_332_3679">
<rect width="46.4876" height="46.4876" fill="white" transform="translate(0.308594 0.422363)"/>
</clipPath>
</defs>
</svg>
