<svg width="48" height="47" viewBox="0 0 48 47" fill="none" xmlns="http://www.w3.org/2000/svg">
<g clip-path="url(#clip0_388_249)">
<path d="M23.8337 4.58846C30.04 4.58846 30.7752 4.61215 33.2263 4.72392C35.7589 4.83951 38.3692 5.41752 40.2147 7.26286C42.0777 9.12581 42.6379 11.7106 42.7539 14.2516C42.8657 16.7027 42.8893 17.4377 42.8893 23.6441C42.8893 29.8505 42.8656 30.5857 42.7539 33.0366C42.6389 35.5564 42.0494 38.1906 40.2149 40.0251C38.351 41.8891 35.7695 42.4483 33.2261 42.5644C30.7754 42.6763 30.0404 42.6999 23.8336 42.6999C17.6267 42.6999 16.8918 42.6762 14.441 42.5644C11.9407 42.4503 9.27205 41.8449 7.45258 40.0255C5.59943 38.1723 5.0286 35.5635 4.91329 33.0366C4.80142 30.5856 4.77782 29.8505 4.77782 23.6441C4.77782 17.4377 4.80152 16.7026 4.91329 14.2515C5.02787 11.7408 5.62486 9.09058 7.45222 7.26313C9.31163 5.40362 11.9049 4.8396 14.441 4.72383C16.8921 4.61215 17.6273 4.58846 23.8337 4.58846ZM23.8337 0.400391C17.5211 0.400391 16.7295 0.427085 14.2502 0.540217C10.6558 0.704285 7.08922 1.70359 4.49108 4.30154C1.88324 6.90939 0.893557 10.4691 0.72967 14.0609C0.616538 16.54 0.589844 17.3315 0.589844 23.6442C0.589844 29.9569 0.616538 30.7484 0.72967 33.2277C0.893466 36.8164 1.89822 40.3939 4.49099 42.9867C7.09566 45.5915 10.6626 46.5844 14.2502 46.7481C16.7295 46.8613 17.5211 46.888 23.8337 46.888C30.1464 46.888 30.9378 46.8613 33.4171 46.7482C37.0076 46.5844 40.581 45.582 43.1762 42.9869C45.7851 40.3781 46.7738 36.8202 46.9377 33.2277C47.0508 30.7484 47.0775 29.9569 47.0775 23.6442C47.0775 17.3316 47.0508 16.54 46.9377 14.0608C46.7738 10.4683 45.7725 6.89795 43.1763 4.30172C40.5754 1.70068 36.9983 0.70365 33.417 0.540217C30.9378 0.427085 30.1464 0.400391 23.8337 0.400391Z" fill="#1F1F1F"/>
<g filter="url(#filter0_d_388_249)">
<path d="M23.8345 11.708C17.2424 11.708 11.8984 17.0519 11.8984 23.6441C11.8984 30.2361 17.2424 35.58 23.8345 35.58C30.4266 35.58 35.7706 30.2361 35.7706 23.6441C35.7706 17.052 30.4266 11.708 23.8345 11.708ZM23.8345 31.392C19.5555 31.392 16.0866 27.9231 16.0866 23.6441C16.0866 19.365 19.5555 15.8962 23.8345 15.8962C28.1135 15.8962 31.5824 19.365 31.5824 23.6441C31.5824 27.9231 28.1135 31.392 23.8345 31.392Z" fill="#1F1F1F"/>
</g>
<path d="M36.2385 14.0258C37.7789 14.0258 39.0277 12.777 39.0277 11.2365C39.0277 9.69606 37.7789 8.44727 36.2385 8.44727C34.698 8.44727 33.4492 9.69606 33.4492 11.2365C33.4492 12.777 34.698 14.0258 36.2385 14.0258Z" fill="#1F1F1F"/>
</g>
<defs>
<filter id="filter0_d_388_249" x="7.94204" y="11.708" width="31.7858" height="31.7849" filterUnits="userSpaceOnUse" color-interpolation-filters="sRGB">
<feFlood flood-opacity="0" result="BackgroundImageFix"/>
<feColorMatrix in="SourceAlpha" type="matrix" values="0 0 0 0 0 0 0 0 0 0 0 0 0 0 0 0 0 0 127 0" result="hardAlpha"/>
<feOffset dy="3.9564"/>
<feGaussianBlur stdDeviation="1.9782"/>
<feComposite in2="hardAlpha" operator="out"/>
<feColorMatrix type="matrix" values="0 0 0 0 0 0 0 0 0 0 0 0 0 0 0 0 0 0 0.25 0"/>
<feBlend mode="normal" in2="BackgroundImageFix" result="effect1_dropShadow_388_249"/>
<feBlend mode="normal" in="SourceGraphic" in2="effect1_dropShadow_388_249" result="shape"/>
</filter>
<clipPath id="clip0_388_249">
<rect width="46.4876" height="46.4876" fill="white" transform="translate(0.589844 0.400391)"/>
</clipPath>
</defs>
</svg>
