<svg width="47" height="47" viewBox="0 0 47 47" fill="none" xmlns="http://www.w3.org/2000/svg">
<g clip-path="url(#clip0_388_254)">
<path d="M23.5505 1.90601C35.5687 1.90601 45.3106 11.6479 45.3106 23.6662C45.3106 35.6845 35.5687 45.4264 23.5505 45.4264C11.5322 45.4264 1.79029 35.6845 1.79029 23.6662C1.79029 11.6479 11.5322 1.90601 23.5505 1.90601Z" stroke="#1F1F1F" stroke-width="2.9673"/>
<path d="M34.0104 15.2683L30.7009 31.9521C30.7009 31.9521 30.2378 33.1088 28.9657 32.5541L21.3298 26.6995L18.5523 25.3576L13.8781 23.7841C13.8781 23.7841 13.1609 23.5289 13.0918 22.9742C13.0219 22.4185 13.9017 22.118 13.9017 22.118L32.4832 14.8288C32.4832 14.8288 34.0104 14.1579 34.0104 15.2683Z" fill="#1F1F1F"/>
<path d="M24.3115 29.3464L21.0601 32.3109C21.0601 32.3109 20.8068 32.5034 20.528 32.3826C20.1185 32.3236 18.9173 28.0416 18.1719 25.4866L18.7956 25.0898L24.3115 29.3464Z" fill="#737373" fill-opacity="0.38"/>
<path d="M20.528 32.3822C20.085 32.3405 18.3998 26.2326 18.1719 25.4863L30.2505 17.8149C30.8788 17.4336 31.2147 17.7341 30.6736 18.2389C30.3004 18.5876 21.1854 26.781 21.1854 26.781L20.528 32.3822Z" fill="#707070" fill-opacity="0.4"/>
</g>
<defs>
<clipPath id="clip0_388_254">
<rect width="46.4876" height="46.4876" fill="white" transform="translate(0.308594 0.422363)"/>
</clipPath>
</defs>
</svg>
