<svg width="297" height="49" viewBox="0 0 297 49" fill="none" xmlns="http://www.w3.org/2000/svg">
<path d="M44.8664 0.512467H28.7618L13.8569 21.9617V0.422363H0V48.6795H13.8569V28.9897L27.6378 48.6795H44.7242L27.0735 24.2806L44.8664 0.512467Z" fill="#1F1F1F"/>
<path d="M78.9016 32.0105C85.37 29.4876 89.1733 23.9297 89.1733 17.1815C89.1733 11.837 87.6226 7.76339 84.4548 4.87536C81.2869 1.98732 77.1469 0.521973 72.0822 0.521973H50.2773V48.6843H64.1342V33.841L74.9703 48.6843H92.5403L78.9016 32.0105ZM68.7721 22.6588H64.1342V12.7475H68.7721C72.9263 12.7475 75.0366 14.4452 75.0366 17.8122C75.0366 21.1792 72.9263 22.6635 68.7721 22.6635V22.6588Z" fill="#1F1F1F"/>
<path d="M111.539 36.8713V30.327H132.352V18.6516H111.539V12.3302H134.463V0.521973H97.6816V48.6843H134.595V36.8761H111.534L111.539 36.8713Z" fill="#1F1F1F"/>
<path d="M181.079 0.51709L170.67 25.3428L160.194 0.51709H142.33V48.6794H155.343V21.53L166.938 48.6794H174.193L185.788 21.53V48.6794H198.934V0.51709H181.07H181.079Z" fill="#1F1F1F"/>
<path d="M221.24 36.8713V30.327H242.053V18.6516H221.24V12.3302H244.164V0.521973H207.383V48.6843H244.297V36.8761H221.235L221.24 36.8713Z" fill="#1F1F1F"/>
<path d="M282.913 0.51709V26.2486L267.724 0.51709H252.051V48.6794H265.476V23.4269L280.666 48.6794H296.348V0.51709H282.909H282.913Z" fill="#1F1F1F"/>
</svg>
