<svg width="211" height="59" viewBox="0 0 211 59" fill="none" xmlns="http://www.w3.org/2000/svg">
<path d="M31.9451 0.0641544H20.4785L9.86614 15.3361V0H0V34.3593H9.86614V20.34L19.6783 34.3593H31.8438L19.2765 16.9872L31.9451 0.0641544Z" fill="#3F3F3F"/>
<path d="M56.1765 22.4904C60.782 20.6941 63.49 16.7369 63.49 11.9321C63.49 8.12677 62.3859 5.22635 60.1304 3.17006C57.8749 1.11377 54.9272 0.0704346 51.3211 0.0704346H35.7959V34.3622H45.662V23.7937L53.3774 34.3622H65.8873L56.1765 22.4904ZM48.9643 15.8319H45.662V8.77506H48.9643C51.9221 8.77506 53.4246 9.98384 53.4246 12.3812C53.4246 14.7785 51.9221 15.8353 48.9643 15.8353V15.8319Z" fill="#3F3F3F"/>
<path d="M79.414 25.9513V21.2918H94.2335V12.9788H79.414V8.47792H95.736V0.0704346H69.5479V34.3622H95.8306V25.9547H79.4106L79.414 25.9513Z" fill="#3F3F3F"/>
<path d="M128.928 0.0671387L121.517 17.7431L114.058 0.0671387H101.339V34.3589H110.604V15.0284L118.86 34.3589H124.026L132.281 15.0284V34.3589H141.641V0.0671387H128.922H128.928Z" fill="#3F3F3F"/>
<path d="M157.523 25.9513V21.2918H172.342V12.9788H157.523V8.47792H173.845V0.0704346H147.657V34.3622H173.939V25.9547H157.52L157.523 25.9513Z" fill="#3F3F3F"/>
<path d="M201.434 0.0671387V18.388L190.619 0.0671387H179.46V34.3589H189.019V16.379L199.834 34.3589H211V0.0671387H201.431H201.434Z" fill="#3F3F3F"/>
<path d="M56.3439 54.0049C56.8235 54.0049 57.1982 53.87 57.468 53.6002C57.7378 53.3304 57.8727 52.9907 57.8727 52.581C57.8727 52.1414 57.7378 51.8217 57.468 51.6218C57.2082 51.422 56.8435 51.3221 56.3739 51.3221H53.7061V54.0049H56.3439ZM53.7061 47.4702V49.6285H56.3289C57.1682 49.6285 57.5879 49.2687 57.5879 48.5493C57.5879 48.1696 57.478 47.8949 57.2582 47.725C57.0483 47.5551 56.6986 47.4702 56.209 47.4702H53.7061ZM51.6977 55.6985V45.7466H56.5987C57.5779 45.7466 58.3223 45.9914 58.8319 46.481C59.3415 46.9606 59.5962 47.6201 59.5962 48.4594C59.5962 48.8891 59.4813 49.2737 59.2515 49.6135C59.0217 49.9432 58.7319 50.178 58.3822 50.3179C58.5921 50.3978 58.7869 50.5027 58.9668 50.6326C59.1566 50.7525 59.3165 50.9124 59.4464 51.1122C59.5863 51.3021 59.6962 51.5319 59.7761 51.8017C59.856 52.0615 59.896 52.3712 59.896 52.7309C59.896 53.6402 59.5912 54.3646 58.9817 54.9041C58.3722 55.4337 57.438 55.6985 56.179 55.6985H51.6977ZM66.9844 47.9798H66.9694L65.6954 51.9366H68.2284L66.9844 47.9798ZM69.4574 55.6985L68.8279 53.6452H65.1559L64.4515 55.6985H62.2483L65.8003 45.7466H68.2134L71.7205 55.6985H69.4574ZM76.8999 47.4702V50.123H79.5078C80.0673 50.123 80.462 49.9981 80.6918 49.7484C80.9216 49.4986 81.0366 49.1838 81.0366 48.8041C81.0366 48.4144 80.9216 48.0947 80.6918 47.8449C80.472 47.5951 80.1023 47.4702 79.5827 47.4702H76.8999ZM80.6768 55.6985V53.1356C80.6768 52.656 80.5669 52.3163 80.3471 52.1164C80.1273 51.9066 79.7176 51.8017 79.1181 51.8017H76.8999V55.6985H74.8766V45.7466H79.9275C80.3871 45.7466 80.8017 45.8216 81.1714 45.9714C81.5511 46.1113 81.8759 46.3112 82.1456 46.571C82.4154 46.8207 82.6203 47.1255 82.7601 47.4852C82.91 47.8349 82.985 48.2146 82.985 48.6243C82.985 49.1638 82.8551 49.6434 82.5953 50.0631C82.3455 50.4728 81.9808 50.7625 81.5012 50.9324C81.9408 51.0723 82.2506 51.2871 82.4304 51.5769C82.6203 51.8666 82.7152 52.3013 82.7152 52.8808V55.6985H80.6768ZM90.8854 54.0049C91.365 54.0049 91.7397 53.87 92.0095 53.6002C92.2792 53.3304 92.4141 52.9907 92.4141 52.581C92.4141 52.1414 92.2792 51.8217 92.0095 51.6218C91.7497 51.422 91.385 51.3221 90.9153 51.3221H88.2475V54.0049H90.8854ZM88.2475 47.4702V49.6285H90.8704C91.7097 49.6285 92.1294 49.2687 92.1294 48.5493C92.1294 48.1696 92.0194 47.8949 91.7996 47.725C91.5898 47.5551 91.2401 47.4702 90.7505 47.4702H88.2475ZM86.2392 55.6985V45.7466H91.1402C92.1194 45.7466 92.8638 45.9914 93.3733 46.481C93.8829 46.9606 94.1377 47.6201 94.1377 48.4594C94.1377 48.8891 94.0228 49.2737 93.793 49.6135C93.5632 49.9432 93.2734 50.178 92.9237 50.3179C93.1335 50.3978 93.3284 50.5027 93.5082 50.6326C93.6981 50.7525 93.8579 50.9124 93.9878 51.1122C94.1277 51.3021 94.2376 51.5319 94.3176 51.8017C94.3975 52.0615 94.4375 52.3712 94.4375 52.7309C94.4375 53.6402 94.1327 54.3646 93.5232 54.9041C92.9137 55.4337 91.9795 55.6985 90.7205 55.6985H86.2392ZM97.5432 55.6985V45.7466H104.857V47.4852H99.5666V49.6135H104.438V51.367H99.5666V53.9299H105.097V55.6985H97.5432ZM110.241 47.4702V50.123H112.849C113.409 50.123 113.803 49.9981 114.033 49.7484C114.263 49.4986 114.378 49.1838 114.378 48.8041C114.378 48.4144 114.263 48.0947 114.033 47.8449C113.813 47.5951 113.444 47.4702 112.924 47.4702H110.241ZM114.018 55.6985V53.1356C114.018 52.656 113.908 52.3163 113.688 52.1164C113.469 51.9066 113.059 51.8017 112.459 51.8017H110.241V55.6985H108.218V45.7466H113.269C113.728 45.7466 114.143 45.8216 114.513 45.9714C114.892 46.1113 115.217 46.3112 115.487 46.571C115.757 46.8207 115.962 47.1255 116.101 47.4852C116.251 47.8349 116.326 48.2146 116.326 48.6243C116.326 49.1638 116.196 49.6434 115.937 50.0631C115.687 50.4728 115.322 50.7625 114.842 50.9324C115.282 51.0723 115.592 51.2871 115.772 51.5769C115.962 51.8666 116.056 52.3013 116.056 52.8808V55.6985H114.018ZM125.113 48.6842C125.063 48.1746 124.879 47.795 124.559 47.5452C124.239 47.2954 123.764 47.1705 123.135 47.1705C122.545 47.1705 122.101 47.2704 121.801 47.4702C121.501 47.6701 121.351 47.9598 121.351 48.3395C121.351 48.6592 121.466 48.914 121.696 49.1039C121.936 49.2937 122.336 49.4586 122.895 49.5985C123.465 49.7384 124.004 49.8782 124.514 50.0181C125.033 50.148 125.478 50.2979 125.848 50.4678C126.068 50.5677 126.272 50.6826 126.462 50.8125C126.652 50.9424 126.817 51.1022 126.957 51.2921C127.097 51.4819 127.207 51.7068 127.287 51.9665C127.367 52.2263 127.407 52.5311 127.407 52.8808C127.407 53.4303 127.307 53.905 127.107 54.3046C126.917 54.6943 126.642 55.019 126.282 55.2788C125.933 55.5386 125.513 55.7285 125.023 55.8484C124.544 55.9783 124.014 56.0432 123.435 56.0432C122.815 56.0432 122.251 55.9733 121.741 55.8334C121.232 55.7035 120.792 55.4986 120.422 55.2189C120.053 54.9391 119.763 54.5944 119.553 54.1847C119.343 53.7651 119.233 53.2755 119.223 52.7159H121.232C121.252 53.2255 121.456 53.6302 121.846 53.9299C122.246 54.2197 122.78 54.3646 123.45 54.3646C124.069 54.3646 124.544 54.2447 124.874 54.0049C125.213 53.7551 125.383 53.4054 125.383 52.9557C125.383 52.8059 125.358 52.671 125.308 52.5511C125.268 52.4312 125.188 52.3212 125.068 52.2213C124.959 52.1114 124.804 52.0165 124.604 51.9366C124.404 51.8466 124.149 51.7667 123.839 51.6968C123.22 51.5569 122.695 51.437 122.266 51.3371C121.846 51.2271 121.461 51.0923 121.112 50.9324C120.572 50.6926 120.157 50.3828 119.868 50.0031C119.588 49.6135 119.448 49.1039 119.448 48.4744C119.448 48.0248 119.523 47.6151 119.673 47.2454C119.823 46.8657 120.048 46.541 120.347 46.2712C120.657 46.0014 121.037 45.7916 121.486 45.6417C121.946 45.4918 122.481 45.4169 123.09 45.4169C123.72 45.4169 124.279 45.4968 124.769 45.6567C125.258 45.8166 125.668 46.0414 125.998 46.3311C126.337 46.6209 126.597 46.9656 126.777 47.3653C126.967 47.765 127.072 48.2046 127.092 48.6842H125.113ZM136.586 55.6985V51.2321H132.704V55.6985H130.621V45.7466H132.704V49.4936H136.586V45.7466H138.684V55.6985H136.586ZM146.777 54.2597C147.146 54.2597 147.496 54.1947 147.826 54.0648C148.155 53.9249 148.44 53.7201 148.68 53.4503C148.93 53.1706 149.125 52.8158 149.264 52.3862C149.404 51.9565 149.474 51.447 149.474 50.8574C149.474 49.6784 149.245 48.7841 148.785 48.1746C148.325 47.5651 147.656 47.2604 146.777 47.2604C145.897 47.2604 145.223 47.5651 144.753 48.1746C144.284 48.7841 144.049 49.6784 144.049 50.8574C144.049 52.0365 144.284 52.9008 144.753 53.4503C145.233 53.9899 145.907 54.2597 146.777 54.2597ZM146.777 56.0432C145.238 56.0432 144.054 55.5936 143.224 54.6943C142.405 53.795 141.995 52.5011 141.995 50.8125C141.995 49.9732 142.1 49.2188 142.31 48.5493C142.52 47.8799 142.83 47.3153 143.239 46.8557C143.649 46.3861 144.149 46.0314 144.738 45.7916C145.328 45.5418 146.007 45.4169 146.777 45.4169C147.536 45.4169 148.21 45.5418 148.8 45.7916C149.399 46.0314 149.899 46.3861 150.299 46.8557C150.698 47.3253 151.003 47.8999 151.213 48.5793C151.423 49.2488 151.528 50.0081 151.528 50.8574C151.528 52.576 151.118 53.87 150.299 54.7393C149.489 55.6086 148.315 56.0432 146.777 56.0432ZM158.915 50.3928C159.515 50.3928 159.945 50.2579 160.204 49.9882C160.474 49.7084 160.609 49.3487 160.609 48.909C160.609 48.4894 160.474 48.1447 160.204 47.8749C159.945 47.6051 159.515 47.4702 158.915 47.4702H156.937V50.3928H158.915ZM154.854 55.6985V45.7466H159.245C159.735 45.7466 160.174 45.8316 160.564 46.0014C160.954 46.1613 161.288 46.3911 161.568 46.6909C161.848 46.9806 162.063 47.3203 162.213 47.71C162.363 48.0997 162.438 48.5194 162.438 48.969C162.438 49.4186 162.363 49.8383 162.213 50.228C162.063 50.6077 161.848 50.9374 161.568 51.2172C161.288 51.4869 160.954 51.7018 160.564 51.8616C160.174 52.0115 159.735 52.0864 159.245 52.0864H156.937V55.6985H154.854Z" fill="#3E3E3E"/>
</svg>
