<svg width="812" height="66" viewBox="0 0 812 66" fill="none" xmlns="http://www.w3.org/2000/svg">
<path d="M0.920904 26V1.99H17.4192C18.5854 1.99 19.6373 2.18437 20.5748 2.5731C21.5123 2.96183 22.3012 3.47633 22.9415 4.1166C23.6046 4.75687 24.1077 5.50003 24.4507 6.3461C24.7937 7.19217 24.9652 8.08397 24.9652 9.0215C24.9652 10.0505 24.7708 10.9995 24.3821 11.8684C23.9934 12.7145 23.5017 13.4119 22.9072 13.9607C23.5017 14.5095 23.9705 15.2184 24.3135 16.0873C24.6794 16.9562 24.8623 17.8938 24.8623 18.8999C24.8623 19.8374 24.6908 20.7407 24.3478 21.6096C24.0277 22.4557 23.5475 23.2103 22.9072 23.8734C22.2669 24.5137 21.478 25.0282 20.5405 25.4169C19.6258 25.8056 18.5854 26 17.4192 26H0.920904ZM8.9814 10.9766H15.3955C15.8071 10.9766 16.1615 10.8394 16.4588 10.565C16.7561 10.2677 16.9047 9.90187 16.9047 9.4674C16.9047 9.0558 16.7561 8.7128 16.4588 8.4384C16.1615 8.14113 15.8071 7.9925 15.3955 7.9925H8.9814V10.9766ZM8.9814 19.9975H15.3955C15.8071 19.9975 16.1615 19.8489 16.4588 19.5516C16.7561 19.2543 16.9047 18.8885 16.9047 18.454C16.9047 18.0424 16.7561 17.6994 16.4588 17.425C16.1615 17.1277 15.8071 16.9791 15.3955 16.9791H8.9814V19.9975ZM33.8918 26V1.99H53.8887V7.9925H41.8837V10.9766H51.8993V16.9791H41.8837V19.9975H53.8887V26H33.8918ZM70.8701 26V27.9894H62.8439L62.9125 18.0081H64.5246V12.9317C64.5246 11.2853 64.8333 9.73037 65.4507 8.2669C66.091 6.80343 66.9485 5.53433 68.0232 4.4596C69.098 3.38487 70.3671 2.5388 71.8305 1.9214C73.294 1.28113 74.8489 0.961 76.4953 0.961C78.1417 0.961 79.6967 1.28113 81.1601 1.9214C82.6236 2.5388 83.8927 3.38487 84.9674 4.4596C86.065 5.53433 86.9225 6.80343 87.5399 8.2669C88.1802 9.73037 88.5003 11.2853 88.5003 12.9317V18.0081H90.0781L90.1467 27.9894H82.1205V26H70.8701ZM72.5165 18.0081H80.5084V12.9317C80.5084 12.3829 80.4055 11.857 80.1997 11.3539C80.0168 10.828 79.7538 10.3706 79.4108 9.9819C79.0678 9.59317 78.6448 9.28447 78.1417 9.0558C77.6615 8.82713 77.1127 8.7128 76.4953 8.7128C75.9008 8.7128 75.352 8.82713 74.8489 9.0558C74.3687 9.28447 73.9571 9.59317 73.6141 9.9819C73.2711 10.3706 72.9967 10.828 72.7909 11.3539C72.608 11.857 72.5165 12.3829 72.5165 12.9317V18.0081ZM103.347 1.99L107.36 13.995H109.658L113.637 1.99H122.04L114.048 26H105.645L106.982 21.9869H101.597L94.9431 1.99H103.347ZM154.269 1.99V9.9819H146.277V26H138.251V9.9819H130.259V1.99H154.269ZM174.849 27.029C173.065 27.029 171.373 26.686 169.772 26C168.194 25.314 166.811 24.3879 165.622 23.2217C164.456 22.0326 163.53 20.6492 162.844 19.0714C162.158 17.4936 161.815 15.8015 161.815 13.995C161.815 12.2114 162.158 10.5307 162.844 8.9529C163.53 7.3751 164.456 6.0031 165.622 4.8369C166.811 3.64783 168.194 2.7103 169.772 2.0243C171.373 1.3383 173.065 0.995299 174.849 0.995299C176.266 0.995299 177.627 1.21253 178.93 1.647C180.234 2.08147 181.423 2.69887 182.498 3.4992C183.595 4.27667 184.544 5.2142 185.344 6.3118C186.168 7.4094 186.797 8.63277 187.231 9.9819L178.965 11.0795C178.484 10.4164 177.879 9.89043 177.147 9.5017C176.415 9.11297 175.649 8.9186 174.849 8.9186C174.163 8.9186 173.511 9.0558 172.894 9.3302C172.299 9.58173 171.773 9.93617 171.316 10.3935C170.858 10.8508 170.493 11.3882 170.218 12.0056C169.967 12.623 169.841 13.2861 169.841 13.995C169.841 14.681 169.967 15.3441 170.218 15.9844C170.493 16.6018 170.858 17.1392 171.316 17.5965C171.773 18.0538 172.299 18.4197 172.894 18.6941C173.511 18.9685 174.163 19.1057 174.849 19.1057C175.649 19.1057 176.415 18.9113 177.147 18.5226C177.879 18.1339 178.484 17.6079 178.965 16.9448L187.231 18.0424C186.797 19.3687 186.168 20.592 185.344 21.7125C184.544 22.8101 183.595 23.7591 182.498 24.5594C181.423 25.3369 180.234 25.9428 178.93 26.3773C177.627 26.8118 176.266 27.029 174.849 27.029ZM205.17 1.99H219.165V26H211.173V21.9869H208.772L205.959 26H197.144L200.677 20.9579C199.854 20.5463 199.099 20.0318 198.413 19.4144C197.75 18.797 197.179 18.0996 196.698 17.3221C196.218 16.5446 195.841 15.71 195.566 14.8182C195.292 13.9264 195.155 12.9889 195.155 12.0056C195.155 10.6336 195.418 9.34163 195.944 8.1297C196.47 6.8949 197.179 5.8316 198.07 4.9398C198.985 4.02513 200.048 3.30483 201.26 2.7789C202.495 2.25297 203.798 1.99 205.17 1.99ZM205.17 9.9819C204.599 9.9819 204.119 10.1763 203.73 10.565C203.341 10.9537 203.147 11.4339 203.147 12.0056C203.147 12.5544 203.341 13.0232 203.73 13.4119C204.119 13.8006 204.599 13.995 205.17 13.995H211.173V9.9819H205.17ZM267.83 1.99V9.9819H259.838V26H251.812V9.9819H243.82V1.99H267.83ZM277.092 26V1.99H297.089V7.9925H285.084V10.9766H295.1V16.9791H285.084V19.9975H297.089V26H277.092ZM314.911 1.99L319.301 7.7181L323.691 1.99H333.295L324.103 13.995L333.295 26H323.691L319.301 20.2719L314.911 26H305.307L314.499 13.995L305.307 1.99H314.911ZM349.853 1.99V9.9819H357.88V1.99H365.872V26H357.88V18.0081H349.853V26H341.862V1.99H349.853ZM391.521 26V14.6124L383.495 26H375.503V1.99H383.495V13.3776L391.521 1.99H399.513V26H391.521ZM416.802 1.99V7.2722C416.802 7.821 416.905 8.34693 417.11 8.85C417.339 9.3302 417.625 9.75323 417.968 10.1191C418.334 10.485 418.757 10.7708 419.237 10.9766C419.74 11.1824 420.266 11.2853 420.815 11.2853C421.364 11.2853 421.878 11.1824 422.358 10.9766C422.861 10.7708 423.284 10.485 423.627 10.1191C423.993 9.75323 424.279 9.3302 424.485 8.85C424.714 8.34693 424.828 7.821 424.828 7.2722V1.99H432.82V26H424.828V16.1902C424.165 16.7619 423.33 17.2078 422.324 17.5279C421.341 17.848 420.289 18.0081 419.168 18.0081C417.956 18.0081 416.722 17.8023 415.464 17.3907C414.229 16.9791 413.109 16.316 412.103 15.4013C411.119 14.4638 410.319 13.2633 409.702 11.7998C409.084 10.3363 408.787 8.56417 408.81 6.4833V1.99H416.802ZM442.382 26V1.99H462.379V7.9925H450.374V10.9766H460.389V16.9791H450.374V19.9975H462.379V26H442.382ZM482.952 27.029C481.169 27.029 479.477 26.686 477.876 26C476.298 25.314 474.915 24.3879 473.726 23.2217C472.56 22.0326 471.633 20.6492 470.947 19.0714C470.261 17.4936 469.918 15.8015 469.918 13.995C469.918 12.2114 470.261 10.5307 470.947 8.9529C471.633 7.3751 472.56 6.0031 473.726 4.8369C474.915 3.64783 476.298 2.7103 477.876 2.0243C479.477 1.3383 481.169 0.995299 482.952 0.995299C484.37 0.995299 485.731 1.21253 487.034 1.647C488.338 2.08147 489.527 2.69887 490.601 3.4992C491.699 4.27667 492.648 5.2142 493.448 6.3118C494.271 7.4094 494.9 8.63277 495.335 9.9819L487.068 11.0795C486.588 10.4164 485.982 9.89043 485.251 9.5017C484.519 9.11297 483.753 8.9186 482.952 8.9186C482.266 8.9186 481.615 9.0558 480.997 9.3302C480.403 9.58173 479.877 9.93617 479.42 10.3935C478.962 10.8508 478.596 11.3882 478.322 12.0056C478.07 12.623 477.945 13.2861 477.945 13.995C477.945 14.681 478.07 15.3441 478.322 15.9844C478.596 16.6018 478.962 17.1392 479.42 17.5965C479.877 18.0538 480.403 18.4197 480.997 18.6941C481.615 18.9685 482.266 19.1057 482.952 19.1057C483.753 19.1057 484.519 18.9113 485.251 18.5226C485.982 18.1339 486.588 17.6079 487.068 16.9448L495.335 18.0424C494.9 19.3687 494.271 20.592 493.448 21.7125C492.648 22.8101 491.699 23.7591 490.601 24.5594C489.527 25.3369 488.338 25.9428 487.034 26.3773C485.731 26.8118 484.37 27.029 482.952 27.029ZM503.936 26V2.0243H511.962V12.3829L518.891 1.99H528.014L520.022 13.995L528.014 26H518.891L511.962 15.6071V26H503.936ZM552.624 26V14.6124L544.598 26H536.606V1.99H544.598V13.3776L552.624 1.99H560.616V26H552.624ZM570.179 26V1.99H590.176V7.9925H578.171V10.9766H588.186V16.9791H578.171V19.9975H590.176V26H570.179ZM614.851 26V1.99H628.845C630.217 1.99 631.509 2.25297 632.721 2.7789C633.956 3.30483 635.019 4.02513 635.911 4.9398C636.826 5.8316 637.546 6.8949 638.072 8.1297C638.598 9.34163 638.861 10.6336 638.861 12.0056C638.861 13.3776 638.598 14.6696 638.072 15.8815C637.546 17.0934 636.826 18.1567 635.911 19.0714C635.019 19.9632 633.956 20.6721 632.721 21.198C631.509 21.7239 630.217 21.9869 628.845 21.9869H622.843V26H614.851ZM622.843 13.995H628.845C629.417 13.995 629.897 13.8006 630.286 13.4119C630.674 13.0232 630.869 12.5544 630.869 12.0056C630.869 11.4339 630.674 10.9537 630.286 10.565C629.897 10.1763 629.417 9.9819 628.845 9.9819H622.843V13.995ZM662.07 1.99L670.062 26H661.658L661.006 24.0106H652.02L651.368 26H642.965L650.957 1.99H662.07ZM654.044 18.0081H659.017L656.513 10.5307L654.044 18.0081ZM678.314 1.99H700.335V7.9925H686.306V10.9766H694.813C695.842 10.9766 696.814 11.1824 697.728 11.594C698.643 11.9827 699.443 12.5201 700.129 13.2061C700.815 13.8692 701.353 14.6581 701.741 15.5728C702.13 16.4875 702.324 17.4593 702.324 18.4883C702.324 19.5173 702.13 20.4891 701.741 21.4038C701.353 22.3185 700.815 23.1188 700.129 23.8048C699.443 24.4908 698.643 25.0282 697.728 25.4169C696.814 25.8056 695.842 26 694.813 26H678.314V1.99ZM686.306 16.9791V19.9975H692.823C693.235 19.9975 693.589 19.8489 693.887 19.5516C694.184 19.2543 694.333 18.8999 694.333 18.4883C694.333 18.0767 694.184 17.7223 693.887 17.425C693.589 17.1277 693.235 16.9791 692.823 16.9791H686.306ZM723.205 27.029C721.422 27.029 719.729 26.686 718.129 26C716.551 25.314 715.168 24.3879 713.978 23.2217C712.812 22.0326 711.886 20.6492 711.2 19.0714C710.514 17.4936 710.171 15.8129 710.171 14.0293C710.171 12.2457 710.514 10.565 711.2 8.9872C711.886 7.38653 712.812 6.0031 713.978 4.8369C715.168 3.64783 716.551 2.7103 718.129 2.0243C719.729 1.3383 721.422 0.995299 723.205 0.995299C724.989 0.995299 726.669 1.3383 728.247 2.0243C729.825 2.7103 731.197 3.64783 732.363 4.8369C733.552 6.0031 734.49 7.38653 735.176 8.9872C735.862 10.565 736.205 12.2457 736.205 14.0293C736.205 15.8129 735.862 17.4936 735.176 19.0714C734.49 20.6492 733.552 22.0326 732.363 23.2217C731.197 24.3879 729.825 25.314 728.247 26C726.669 26.686 724.989 27.029 723.205 27.029ZM723.205 19.1057C723.891 19.1057 724.531 18.9799 725.126 18.7284C725.743 18.454 726.281 18.0881 726.738 17.6308C727.195 17.1735 727.55 16.6361 727.801 16.0187C728.076 15.4013 728.213 14.7382 728.213 14.0293C728.213 13.3204 728.076 12.6573 727.801 12.0399C727.55 11.4225 727.195 10.8851 726.738 10.4278C726.281 9.9476 725.743 9.58173 725.126 9.3302C724.531 9.0558 723.891 8.9186 723.205 8.9186C722.519 8.9186 721.867 9.0558 721.25 9.3302C720.633 9.58173 720.095 9.9476 719.638 10.4278C719.181 10.8851 718.815 11.4225 718.54 12.0399C718.289 12.6573 718.163 13.3204 718.163 14.0293C718.163 14.7382 718.289 15.4013 718.54 16.0187C718.815 16.6361 719.181 17.1735 719.638 17.6308C720.095 18.0881 720.633 18.454 721.25 18.7284C721.867 18.9799 722.519 19.1057 723.205 19.1057ZM767.763 1.99V9.9819H759.771V26H751.745V9.9819H743.753V1.99H767.763ZM785.052 1.99V6.0031H791.054C792.426 6.0031 793.718 6.26607 794.93 6.792C796.165 7.31793 797.228 8.03823 798.12 8.9529C799.035 9.8447 799.755 10.8966 800.281 12.1085C800.807 13.3204 801.07 14.6124 801.07 15.9844C801.07 17.3564 800.807 18.6598 800.281 19.8946C799.755 21.1065 799.035 22.1698 798.12 23.0845C797.228 23.9763 796.165 24.6852 794.93 25.2111C793.718 25.737 792.426 26 791.054 26H777.06V1.99H785.052ZM811.051 1.99V26H803.059V1.99H811.051ZM785.052 18.0081H791.054C791.626 18.0081 792.106 17.8137 792.495 17.425C792.883 17.0363 793.078 16.5561 793.078 15.9844C793.078 15.4356 792.883 14.9668 792.495 14.5781C792.106 14.1894 791.626 13.995 791.054 13.995H785.052V18.0081ZM57.8834 39.99L67.213 49.4568L76.5426 39.99H84.5345V64H76.5426V51.0346L67.213 59.9869L57.8834 51.0346V64H49.8915V39.99H57.8834ZM102.177 39.99V44.0031H108.179C109.551 44.0031 110.843 44.2661 112.055 44.792C113.29 45.3179 114.353 46.0382 115.245 46.9529C116.16 47.8447 116.88 48.8966 117.406 50.1085C117.932 51.3204 118.195 52.6124 118.195 53.9844C118.195 55.3564 117.932 56.6598 117.406 57.8946C116.88 59.1065 116.16 60.1698 115.245 61.0845C114.353 61.9763 113.29 62.6852 112.055 63.2111C110.843 63.737 109.551 64 108.179 64H94.1849V39.99H102.177ZM128.176 39.99V64H120.184V39.99H128.176ZM102.177 56.0081H108.179C108.751 56.0081 109.231 55.8137 109.62 55.425C110.009 55.0363 110.203 54.5561 110.203 53.9844C110.203 53.4356 110.009 52.9668 109.62 52.5781C109.231 52.1894 108.751 51.995 108.179 51.995H102.177V56.0081ZM152.824 64V40.0243H160.85V50.3829L167.778 39.99H176.902L168.91 51.995L176.902 64H167.778L160.85 53.6071V64H152.824ZM201.582 64V39.99H218.08C219.246 39.99 220.298 40.1844 221.236 40.5731C222.173 40.9618 222.962 41.4763 223.603 42.1166C224.266 42.7569 224.769 43.5 225.112 44.3461C225.455 45.1922 225.626 46.084 225.626 47.0215C225.626 48.0505 225.432 48.9995 225.043 49.8684C224.654 50.7145 224.163 51.4119 223.568 51.9607C224.163 52.5095 224.632 53.2184 224.975 54.0873C225.34 54.9562 225.523 55.8938 225.523 56.8999C225.523 57.8374 225.352 58.7407 225.009 59.6096C224.689 60.4557 224.208 61.2103 223.568 61.8734C222.928 62.5137 222.139 63.0282 221.202 63.4169C220.287 63.8056 219.246 64 218.08 64H201.582ZM209.642 48.9766H216.057C216.468 48.9766 216.823 48.8394 217.12 48.565C217.417 48.2677 217.566 47.9019 217.566 47.4674C217.566 47.0558 217.417 46.7128 217.12 46.4384C216.823 46.1411 216.468 45.9925 216.057 45.9925H209.642V48.9766ZM209.642 57.9975H216.057C216.468 57.9975 216.823 57.8489 217.12 57.5516C217.417 57.2543 217.566 56.8885 217.566 56.454C217.566 56.0424 217.417 55.6994 217.12 55.425C216.823 55.1277 216.468 54.9791 216.057 54.9791H209.642V57.9975ZM251.581 39.99L259.573 64H251.17L250.518 62.0106H241.531L240.88 64H232.476L240.468 39.99H251.581ZM243.555 56.0081H248.528L246.025 48.5307L243.555 56.0081ZM275.784 39.99L285.113 49.4568L294.443 39.99H302.435V64H294.443V51.0346L285.113 59.9869L275.784 51.0346V64H267.792V39.99H275.784ZM337.414 65.029C335.63 65.029 333.938 64.686 332.338 64C330.76 63.314 329.376 62.3879 328.187 61.2217C327.021 60.0326 326.095 58.6492 325.409 57.0714C324.723 55.4936 324.38 53.8015 324.38 51.995C324.38 50.2114 324.723 48.5307 325.409 46.9529C326.095 45.3751 327.021 44.0031 328.187 42.8369C329.376 41.6478 330.76 40.7103 332.338 40.0243C333.938 39.3383 335.63 38.9953 337.414 38.9953C338.832 38.9953 340.192 39.2125 341.496 39.647C342.799 40.0815 343.988 40.6989 345.063 41.4992C346.16 42.2767 347.109 43.2142 347.91 44.3118C348.733 45.4094 349.362 46.6328 349.796 47.9819L341.53 49.0795C341.05 48.4164 340.444 47.8904 339.712 47.5017C338.98 47.113 338.214 46.9186 337.414 46.9186C336.728 46.9186 336.076 47.0558 335.459 47.3302C334.864 47.5817 334.338 47.9362 333.881 48.3935C333.424 48.8508 333.058 49.3882 332.783 50.0056C332.532 50.623 332.406 51.2861 332.406 51.995C332.406 52.681 332.532 53.3441 332.783 53.9844C333.058 54.6018 333.424 55.1392 333.881 55.5965C334.338 56.0538 334.864 56.4197 335.459 56.6941C336.076 56.9685 336.728 57.1057 337.414 57.1057C338.214 57.1057 338.98 56.9113 339.712 56.5226C340.444 56.1339 341.05 55.6079 341.53 54.9448L349.796 56.0424C349.362 57.3687 348.733 58.592 347.91 59.7125C347.109 60.8101 346.16 61.7591 345.063 62.5594C343.988 63.3369 342.799 63.9428 341.496 64.3773C340.192 64.8118 338.832 65.029 337.414 65.029ZM358.397 64V40.0243H366.423V50.3829L373.352 39.99H382.476L374.484 51.995L382.476 64H373.352L366.423 53.6071V64H358.397ZM400.643 65.029C398.859 65.029 397.167 64.686 395.566 64C393.988 63.314 392.605 62.3879 391.416 61.2217C390.25 60.0326 389.324 58.6492 388.638 57.0714C387.952 55.4936 387.609 53.8129 387.609 52.0293C387.609 50.2457 387.952 48.565 388.638 46.9872C389.324 45.3865 390.25 44.0031 391.416 42.8369C392.605 41.6478 393.988 40.7103 395.566 40.0243C397.167 39.3383 398.859 38.9953 400.643 38.9953C402.426 38.9953 404.107 39.3383 405.685 40.0243C407.262 40.7103 408.634 41.6478 409.801 42.8369C410.99 44.0031 411.927 45.3865 412.613 46.9872C413.299 48.565 413.642 50.2457 413.642 52.0293C413.642 53.8129 413.299 55.4936 412.613 57.0714C411.927 58.6492 410.99 60.0326 409.801 61.2217C408.634 62.3879 407.262 63.314 405.685 64C404.107 64.686 402.426 65.029 400.643 65.029ZM400.643 57.1057C401.329 57.1057 401.969 56.9799 402.563 56.7284C403.181 56.454 403.718 56.0881 404.175 55.6308C404.633 55.1735 404.987 54.6361 405.239 54.0187C405.513 53.4013 405.65 52.7382 405.65 52.0293C405.65 51.3204 405.513 50.6573 405.239 50.0399C404.987 49.4225 404.633 48.8851 404.175 48.4278C403.718 47.9476 403.181 47.5817 402.563 47.3302C401.969 47.0558 401.329 46.9186 400.643 46.9186C399.957 46.9186 399.305 47.0558 398.687 47.3302C398.07 47.5817 397.533 47.9476 397.075 48.4278C396.618 48.8851 396.252 49.4225 395.978 50.0399C395.726 50.6573 395.6 51.3204 395.6 52.0293C395.6 52.7382 395.726 53.4013 395.978 54.0187C396.252 54.6361 396.618 55.1735 397.075 55.6308C397.533 56.0881 398.07 56.454 398.687 56.7284C399.305 56.9799 399.957 57.1057 400.643 57.1057ZM422.229 64V39.99H436.223C437.595 39.99 438.887 40.253 440.099 40.7789C441.334 41.3048 442.397 42.0251 443.289 42.9398C444.204 43.8316 444.924 44.8949 445.45 46.1297C445.976 47.3416 446.239 48.6336 446.239 50.0056C446.239 51.3776 445.976 52.6696 445.45 53.8815C444.924 55.0934 444.204 56.1567 443.289 57.0714C442.397 57.9632 441.334 58.6721 440.099 59.198C438.887 59.7239 437.595 59.9869 436.223 59.9869H430.221V64H422.229ZM430.221 51.995H436.223C436.795 51.995 437.275 51.8006 437.664 51.4119C438.052 51.0232 438.247 50.5544 438.247 50.0056C438.247 49.4339 438.052 48.9537 437.664 48.565C437.275 48.1763 436.795 47.9819 436.223 47.9819H430.221V51.995ZM466.819 65.029C465.035 65.029 463.343 64.686 461.742 64C460.165 63.314 458.781 62.3879 457.592 61.2217C456.426 60.0326 455.5 58.6492 454.814 57.0714C454.128 55.4936 453.785 53.8129 453.785 52.0293C453.785 50.2457 454.128 48.565 454.814 46.9872C455.5 45.3865 456.426 44.0031 457.592 42.8369C458.781 41.6478 460.165 40.7103 461.742 40.0243C463.343 39.3383 465.035 38.9953 466.819 38.9953C468.602 38.9953 470.283 39.3383 471.861 40.0243C473.439 40.7103 474.811 41.6478 475.977 42.8369C477.166 44.0031 478.103 45.3865 478.789 46.9872C479.475 48.565 479.818 50.2457 479.818 52.0293C479.818 53.8129 479.475 55.4936 478.789 57.0714C478.103 58.6492 477.166 60.0326 475.977 61.2217C474.811 62.3879 473.439 63.314 471.861 64C470.283 64.686 468.602 65.029 466.819 65.029ZM466.819 57.1057C467.505 57.1057 468.145 56.9799 468.74 56.7284C469.357 56.454 469.894 56.0881 470.352 55.6308C470.809 55.1735 471.163 54.6361 471.415 54.0187C471.689 53.4013 471.827 52.7382 471.827 52.0293C471.827 51.3204 471.689 50.6573 471.415 50.0399C471.163 49.4225 470.809 48.8851 470.352 48.4278C469.894 47.9476 469.357 47.5817 468.74 47.3302C468.145 47.0558 467.505 46.9186 466.819 46.9186C466.133 46.9186 465.481 47.0558 464.864 47.3302C464.246 47.5817 463.709 47.9476 463.252 48.4278C462.794 48.8851 462.428 49.4225 462.154 50.0399C461.902 50.6573 461.777 51.3204 461.777 52.0293C461.777 52.7382 461.902 53.4013 462.154 54.0187C462.428 54.6361 462.794 55.1735 463.252 55.6308C463.709 56.0881 464.246 56.454 464.864 56.7284C465.481 56.9799 466.133 57.1057 466.819 57.1057ZM504.159 64V39.99H520.657C521.823 39.99 522.875 40.1844 523.813 40.5731C524.75 40.9618 525.539 41.4763 526.179 42.1166C526.843 42.7569 527.346 43.5 527.689 44.3461C528.032 45.1922 528.203 46.084 528.203 47.0215C528.203 48.0505 528.009 48.9995 527.62 49.8684C527.231 50.7145 526.74 51.4119 526.145 51.9607C526.74 52.5095 527.208 53.2184 527.551 54.0873C527.917 54.9562 528.1 55.8938 528.1 56.8999C528.1 57.8374 527.929 58.7407 527.586 59.6096C527.266 60.4557 526.785 61.2103 526.145 61.8734C525.505 62.5137 524.716 63.0282 523.778 63.4169C522.864 63.8056 521.823 64 520.657 64H504.159ZM512.219 48.9766H518.633C519.045 48.9766 519.399 48.8394 519.697 48.565C519.994 48.2677 520.143 47.9019 520.143 47.4674C520.143 47.0558 519.994 46.7128 519.697 46.4384C519.399 46.1411 519.045 45.9925 518.633 45.9925H512.219V48.9766ZM512.219 57.9975H518.633C519.045 57.9975 519.399 57.8489 519.697 57.5516C519.994 57.2543 520.143 56.8885 520.143 56.454C520.143 56.0424 519.994 55.6994 519.697 55.425C519.399 55.1277 519.045 54.9791 518.633 54.9791H512.219V57.9975ZM537.13 64V39.99H557.127V45.9925H545.122V48.9766H555.137V54.9791H545.122V57.9975H557.127V64H537.13ZM566.382 64V39.99H580.377C581.749 39.99 583.041 40.253 584.253 40.7789C585.488 41.3048 586.551 42.0251 587.443 42.9398C588.357 43.8316 589.078 44.8949 589.604 46.1297C590.13 47.3416 590.392 48.6336 590.392 50.0056C590.392 51.3776 590.13 52.6696 589.604 53.8815C589.078 55.0934 588.357 56.1567 587.443 57.0714C586.551 57.9632 585.488 58.6721 584.253 59.198C583.041 59.7239 581.749 59.9869 580.377 59.9869H574.374V64H566.382ZM574.374 51.995H580.377C580.949 51.995 581.429 51.8006 581.817 51.4119C582.206 51.0232 582.401 50.5544 582.401 50.0056C582.401 49.4339 582.206 48.9537 581.817 48.565C581.429 48.1763 580.949 47.9819 580.377 47.9819H574.374V51.995ZM606.608 39.99V47.9819H614.635V39.99H622.626V64H614.635V56.0081H606.608V64H598.616V39.99H606.608ZM632.224 64V39.99H652.221V45.9925H640.216V48.9766H650.231V54.9791H640.216V57.9975H652.221V64H632.224ZM669.468 39.99L678.798 49.4568L688.128 39.99H696.12V64H688.128V51.0346L678.798 59.9869L669.468 51.0346V64H661.477V39.99H669.468ZM717.757 65.029C715.973 65.029 714.281 64.686 712.68 64C711.103 63.314 709.719 62.3879 708.53 61.2217C707.364 60.0326 706.438 58.6492 705.752 57.0714C705.066 55.4936 704.723 53.8015 704.723 51.995C704.723 50.2114 705.066 48.5307 705.752 46.9529C706.438 45.3751 707.364 44.0031 708.53 42.8369C709.719 41.6478 711.103 40.7103 712.68 40.0243C714.281 39.3383 715.973 38.9953 717.757 38.9953C719.174 38.9953 720.535 39.2125 721.838 39.647C723.142 40.0815 724.331 40.6989 725.406 41.4992C726.503 42.2767 727.452 43.2142 728.253 44.3118C729.076 45.4094 729.705 46.6328 730.139 47.9819L721.873 49.0795C721.393 48.4164 720.787 47.8904 720.055 47.5017C719.323 47.113 718.557 46.9186 717.757 46.9186C717.071 46.9186 716.419 47.0558 715.802 47.3302C715.207 47.5817 714.681 47.9362 714.224 48.3935C713.766 48.8508 713.401 49.3882 713.126 50.0056C712.875 50.623 712.749 51.2861 712.749 51.995C712.749 52.681 712.875 53.3441 713.126 53.9844C713.401 54.6018 713.766 55.1392 714.224 55.5965C714.681 56.0538 715.207 56.4197 715.802 56.6941C716.419 56.9685 717.071 57.1057 717.757 57.1057C718.557 57.1057 719.323 56.9113 720.055 56.5226C720.787 56.1339 721.393 55.6079 721.873 54.9448L730.139 56.0424C729.705 57.3687 729.076 58.592 728.253 59.7125C727.452 60.8101 726.503 61.7591 725.406 62.5594C724.331 63.3369 723.142 63.9428 721.838 64.3773C720.535 64.8118 719.174 65.029 717.757 65.029ZM748.078 39.99H762.073V64H754.081V59.9869H751.68L748.867 64H740.052L743.585 58.9579C742.762 58.5463 742.007 58.0318 741.321 57.4144C740.658 56.797 740.087 56.0996 739.606 55.3221C739.126 54.5446 738.749 53.71 738.474 52.8182C738.2 51.9264 738.063 50.9889 738.063 50.0056C738.063 48.6336 738.326 47.3416 738.852 46.1297C739.378 44.8949 740.087 43.8316 740.978 42.9398C741.893 42.0251 742.956 41.3048 744.168 40.7789C745.403 40.253 746.706 39.99 748.078 39.99ZM748.078 47.9819C747.507 47.9819 747.027 48.1763 746.638 48.565C746.249 48.9537 746.055 49.4339 746.055 50.0056C746.055 50.5544 746.249 51.0232 746.638 51.4119C747.027 51.8006 747.507 51.995 748.078 51.995H754.081V47.9819H748.078Z" fill="black"/>
</svg>
