<svg width="83" height="14" viewBox="0 0 83 14" fill="none" xmlns="http://www.w3.org/2000/svg">
<path d="M12.4544 0.0250117H7.9839L3.84649 5.97904V0H0V13.3956H3.84649V7.92993L7.67192 13.3956H12.4149L7.51526 6.62275L12.4544 0.0250117Z" fill="black"/>
<path d="M21.9008 8.76841C23.6964 8.06809 24.7521 6.52529 24.7521 4.65206C24.7521 3.16849 24.3216 2.03771 23.4423 1.23603C22.5629 0.434351 21.4137 0.0275879 20.0078 0.0275879H13.9551V13.3968H17.8016V9.27654L20.8095 13.3968H25.6867L21.9008 8.76841ZM19.089 6.17249H17.8016V3.42124H19.089C20.2422 3.42124 20.8279 3.89251 20.8279 4.82714C20.8279 5.76178 20.2422 6.17381 19.089 6.17381V6.17249Z" fill="black"/>
<path d="M30.9617 10.1177V8.30109H36.7394V5.06014H30.9617V3.3054H37.3252V0.0275879H27.1152V13.3968H37.362V10.119H30.9604L30.9617 10.1177Z" fill="black"/>
<path d="M50.266 0.0263672L47.3765 6.91767L44.4686 0.0263672H39.5098V13.3956H43.1219V5.85929L46.3405 13.3956H48.3546L51.5732 5.85929V13.3956H55.2222V0.0263672H50.2633H50.266Z" fill="black"/>
<path d="M61.4129 10.1177V8.30109H67.1905V5.06014H61.4129V3.3054H67.7763V0.0275879H57.5664V13.3968H67.8132V10.119H61.4116L61.4129 10.1177Z" fill="black"/>
<path d="M78.5319 0.0263672V7.1691L74.3155 0.0263672H69.9648V13.3956H73.6915V6.38584L77.9079 13.3956H82.2612V0.0263672H78.5306H78.5319Z" fill="black"/>
</svg>
