<svg width="14" height="18" viewBox="0 0 14 18" fill="none" xmlns="http://www.w3.org/2000/svg">
<path fill-rule="evenodd" clip-rule="evenodd" d="M6.3546 17.7809L6.3588 17.785L6.3616 17.7878C6.54531 17.9255 6.7695 18 7 18C7.2305 18 7.45469 17.9255 7.6384 17.7878L7.6412 17.785L7.6454 17.7809L7.6622 17.7684C7.75242 17.6997 7.84111 17.6291 7.9282 17.5565C8.97207 16.6863 9.93107 15.7211 10.7926 14.6736C12.334 12.7876 14 10.046 14 6.92347C14 5.08725 13.2625 3.32624 11.9497 2.02784C10.637 0.729435 8.85651 0 7 0C5.14348 0 3.36301 0.729435 2.05025 2.02784C0.737498 3.32624 0 5.08725 0 6.92347C0 10.046 1.666 12.7876 3.2088 14.6736C4.07034 15.7211 5.02935 16.6863 6.0732 17.5565C6.16042 17.6283 6.24863 17.699 6.3378 17.7684L6.3546 17.7822V17.7809ZM7 9.00051C7.27578 9.00051 7.54885 8.94679 7.80364 8.84241C8.05842 8.73802 8.28992 8.58503 8.48492 8.39216C8.67993 8.19929 8.83461 7.97032 8.94015 7.71832C9.04568 7.46632 9.1 7.19623 9.1 6.92347C9.1 6.65071 9.04568 6.38062 8.94015 6.12862C8.83461 5.87662 8.67993 5.64765 8.48492 5.45478C8.28992 5.26191 8.05842 5.10892 7.80364 5.00453C7.54885 4.90015 7.27578 4.84643 7 4.84643C6.44305 4.84643 5.9089 5.06526 5.51508 5.45478C5.12125 5.8443 4.9 6.3726 4.9 6.92347C4.9 7.47434 5.12125 8.00264 5.51508 8.39216C5.9089 8.78168 6.44305 9.00051 7 9.00051Z" fill="black"/>
</svg>
