<svg width="160" height="24" viewBox="0 0 160 24" fill="none" xmlns="http://www.w3.org/2000/svg">
<path d="M141.825 22L143.45 14.975L138 10.25L145.2 9.625L148 3L150.8 9.625L158 10.25L152.55 14.975L154.175 22L148 18.275L141.825 22Z" fill="#EFFF0D"/>
<path d="M107.825 22L109.45 14.975L104 10.25L111.2 9.625L114 3L116.8 9.625L124 10.25L118.55 14.975L120.175 22L114 18.275L107.825 22Z" fill="#EFFF0D"/>
<path d="M73.825 22L75.45 14.975L70 10.25L77.2 9.625L80 3L82.8 9.625L90 10.25L84.55 14.975L86.175 22L80 18.275L73.825 22Z" fill="#EFFF0D"/>
<path d="M39.825 22L41.45 14.975L36 10.25L43.2 9.625L46 3L48.8 9.625L56 10.25L50.55 14.975L52.175 22L46 18.275L39.825 22Z" fill="#EFFF0D"/>
<path d="M5.825 22L7.45 14.975L2 10.25L9.2 9.625L12 3L14.8 9.625L22 10.25L16.55 14.975L18.175 22L12 18.275L5.825 22Z" fill="#EFFF0D"/>
</svg>
