<svg width="101" height="101" viewBox="0 0 101 101" fill="none" xmlns="http://www.w3.org/2000/svg">
<circle cx="50.5" cy="50.5" r="50.5" fill="#0073FA"/>
<path d="M63.0205 55.9551C62.3249 55.6256 58.9932 53.9781 58.3708 53.7218C57.7483 53.4655 57.309 53.3923 56.833 54.0879C56.3571 54.7835 55.0756 56.2847 54.6729 56.7606C54.2702 57.2366 53.904 57.2732 53.2084 56.7606C51.2104 55.9588 49.3651 54.8194 47.7531 53.3923C46.294 52.0184 45.0586 50.4248 44.0919 48.6693C43.6891 48.0102 44.0919 47.6441 44.3848 47.278C44.6777 46.9119 45.0438 46.5091 45.4099 46.1064C45.6777 45.7581 45.8992 45.3766 46.069 44.9714C46.1598 44.783 46.207 44.5765 46.207 44.3673C46.207 44.1581 46.1598 43.9516 46.069 43.7632C46.069 43.4337 44.5312 40.1019 43.9454 38.7473C43.3596 37.3926 42.8471 37.5757 42.4443 37.5757H40.9798C40.2822 37.6029 39.6238 37.9057 39.1492 38.4178C38.3831 39.1488 37.7763 40.0302 37.3668 41.0068C36.9573 41.9833 36.7539 43.0339 36.7694 44.0927C36.9567 46.6921 37.9124 49.1772 39.5153 51.2321C42.4567 55.6016 46.4807 59.1337 51.1947 61.4836C52.8057 62.1793 54.0505 62.582 55.039 62.9115C56.4272 63.3311 57.8944 63.4189 59.3227 63.1678C60.2713 62.9754 61.1702 62.5901 61.9638 62.0359C62.7574 61.4816 63.4286 60.7703 63.9359 59.9459C64.358 58.9279 64.4972 57.8146 64.3386 56.724C64.1555 56.4677 63.7162 56.2847 63.0205 55.9551Z" fill="white"/>
<path d="M69.868 31.022C67.336 28.466 64.3177 26.443 60.9913 25.0722C57.6649 23.7014 54.0977 23.0105 50.5 23.0405C45.7341 23.0654 41.0582 24.3403 36.9392 26.7379C32.8203 29.1355 29.4024 32.5718 27.0271 36.7036C24.6518 40.8354 23.4021 45.5181 23.4028 50.2841C23.4036 55.05 24.6547 59.7323 27.0314 63.8634L23.3701 77.9592L37.7954 74.298C41.7834 76.468 46.2527 77.6011 50.7929 77.5931H50.5C55.911 77.6284 61.2099 76.0512 65.721 73.0629C70.2321 70.0745 73.751 65.8102 75.8288 60.8139C77.9067 55.8176 78.4494 50.3157 77.3878 45.0097C76.3261 39.7038 73.7083 34.8342 69.868 31.022ZM50.5 72.9067C46.438 72.9099 42.4516 71.8089 38.967 69.7214L38.1616 69.2455L29.5942 71.4788L31.8642 63.1312L31.3516 62.2891C28.4276 57.5801 27.3338 51.9616 28.2778 46.4996C29.2218 41.0377 32.1379 36.1122 36.4729 32.6578C40.8078 29.2034 46.2599 27.4604 51.7948 27.7595C57.3297 28.0587 62.5622 30.3791 66.4996 34.2805C68.6105 36.3744 70.2835 38.8674 71.4213 41.6143C72.559 44.3612 73.1387 47.307 73.1265 50.2802C73.1168 56.2781 70.7299 62.0277 66.4887 66.2689C62.2475 70.5101 56.4979 72.897 50.5 72.9067Z" fill="white"/>
</svg>
